<?xml version="1.0" encoding="UTF-8" standalone="no"?> <svg xmlns="http://www.w3.org/2000/svg" width="42" height="42" viewBox="0 0 42 42">
  <defs>
    <style>
      .a {
        fill: #d3d4ed;
      }
    </style>
  </defs>
  <title>3 Playlist</title>
  <g>
    <path class="a" d="M42,3V8.86a3,3,0,0,1-2.35,2.92L29.57,14A2,2,0,0,0,28,16V35.63a5.85,5.85,0,0,1-4.59,5.72l-2.28.51a6.27,6.27,0,0,1-1.28.14A5.86,5.86,0,0,1,14,36.14c0-.1,0-.2,0-.31a6,6,0,0,1,4.8-5.46l2.62-.58a2,2,0,0,0,1.57-2V7.34a4.82,4.82,0,0,1,3.77-4.7L38.35.07A3,3,0,0,1,42,3Z"/>
    <path class="a" d="M15,11H2A2,2,0,0,1,2,7H15a2,2,0,0,1,0,4Z"/>
    <path class="a" d="M15,19H2a2,2,0,0,1,0-4H15a2,2,0,0,1,0,4Z"/>
    <path class="a" d="M10,27H2a2,2,0,0,1,0-4h8a2,2,0,0,1,0,4Z"/>
  </g>
</svg>
